<svg width="162" height="162" viewBox="0 0 162 162" fill="none" xmlns="http://www.w3.org/2000/svg">
<g clip-path="url(#clip0)">
<path d="M91.7171 23.5942C76.4766 20.8187 61.0652 24.1346 48.3228 32.9304C35.5804 41.7263 27.0313 54.95 24.2511 70.1649C21.471 85.3797 24.7924 100.765 33.6031 113.486C42.4138 126.207 55.6598 134.742 70.9003 137.517C86.1408 140.293 101.552 136.977 114.295 128.181C123.018 122.159 129.91 113.894 134.225 104.278C135.248 101.998 134.227 99.3221 131.943 98.3011C129.659 97.2793 126.978 98.2999 125.955 100.579C122.317 108.686 116.502 115.658 109.141 120.74C88.2024 135.193 59.8378 131.059 43.8081 111.941L67.5321 95.5651C74.3898 101.839 84.9381 102.799 92.9053 97.299C100.872 91.7994 103.698 81.6084 100.239 72.9878L123.963 56.612C127.916 63.6437 130.054 71.5691 130.183 79.7852C130.221 82.2829 132.282 84.2762 134.784 84.2373C137.286 84.1981 139.283 82.141 139.244 79.6433C139.062 68.0982 135.525 57.026 129.014 47.6253C120.204 34.9044 106.958 26.3697 91.7171 23.5942ZM53.4768 40.3719C74.415 25.9186 102.78 30.0528 118.809 49.1701L95.0853 65.5463C88.2275 59.2724 77.6793 58.3129 69.7121 63.8125C61.7449 69.3121 58.9196 79.5031 62.378 88.1237L38.6541 104.5C26.3979 82.7779 32.5387 54.8252 53.4768 40.3719ZM87.7513 89.8576C82.6135 93.4041 75.5437 92.1165 71.9912 86.9875C68.4387 81.8584 69.7284 74.8004 74.8661 71.2539C80.0039 67.7074 87.0737 68.9949 90.6262 74.124C94.1787 79.2531 92.889 86.3111 87.7513 89.8576Z" fill="white"/>
</g>
<defs>
<clipPath id="clip0">
<rect width="115.935" height="115.866" fill="white" transform="matrix(0.822971 -0.568084 0.56938 0.822075 0.617188 65.8608)"/>
</clipPath>
</defs>
</svg>
