<svg width="32" height="32" fill="none" xmlns="http://www.w3.org/2000/svg">
    <g clip-path="url(#a)">
        <path d="M26.847 1.301v29.917a.78.78 0 0 1-1.212.65l-9.417-6.249a.394.394 0 0 0-.436 0l-9.417 6.25a.78.78 0 0 1-1.212-.651V1.301C5.153.583 5.735 0 6.453 0h19.093c.719 0 1.301.583 1.301 1.301z" fill="#828282" />
        <path d="m16.7 6.814 1.535 3.11a.78.78 0 0 0 .587.427l3.432.498a.78.78 0 0 1 .432 1.332l-2.483 2.42a.78.78 0 0 0-.224.69l.586 3.418a.78.78 0 0 1-1.133.823l-3.069-1.613a.78.78 0 0 0-.726 0l-3.07 1.613a.78.78 0 0 1-1.132-.823l.586-3.417a.78.78 0 0 0-.225-.691l-2.482-2.42a.78.78 0 0 1 .432-1.332l3.432-.498a.78.78 0 0 0 .587-.427l1.535-3.11a.78.78 0 0 1 1.4 0z" fill="#E5E5E5" />
        <path d="M25.546 0h-2.48c.718 0 1.3.583 1.3 1.301v29.726l1.269.841a.78.78 0 0 0 1.212-.65V1.3c0-.718-.582-1.301-1.3-1.301z" fill="#4F4F4F" />
    </g>
    <defs>
        <clipPath id="a">
            <path fill="#fff" d="M0 0h32v32H0z" />
        </clipPath>
    </defs>
</svg>
