<svg width="32" height="32" viewBox="0 0 32 32" fill="none" xmlns="http://www.w3.org/2000/svg">
    <path d="M13.9028 26C9.55499 26 6 22.445 6 18.0972C6 13.7494 9.55499 10.1944 13.9028 10.1944C15.5141 10.1944 17.1509 10.7059 18.4808 11.6522L18.6598 11.7289L22.266 8.04604H18.8389V6H26V13.1611H23.954V9.73402L20.2711 13.3402L20.3734 13.5192C21.3197 14.8491 21.8312 16.4604 21.8312 18.0972C21.8056 22.445 18.2506 26 13.9028 26ZM13.9028 12.4194C10.757 12.4194 8.22506 14.977 8.22506 18.0972C8.22506 21.2174 10.7826 23.7749 13.9028 23.7749C17.023 23.7749 19.5806 21.2174 19.5806 18.0972C19.5806 14.977 17.0486 12.4194 13.9028 12.4194Z" />
</svg>
