<svg width="32" height="32" viewBox="0 0 32 32" fill="none" xmlns="http://www.w3.org/2000/svg">
    <path d="M8.21304 18.3846C8.86416 21.9294 11.9698 24.6154 15.7029 24.6154C17.5944 24.6154 19.3767 23.9241 20.7613 22.6927C21.0471 22.4386 21.4847 22.4643 21.7387 22.75C21.9928 23.0357 21.9672 23.4733 21.6815 23.7274C20.0457 25.182 17.9369 26 15.7029 26C11.2032 26 7.47472 22.6978 6.80871 18.3846H5.34615C5.15498 18.3846 5 18.2296 5 18.0385C5 17.9599 5.02675 17.8836 5.07585 17.8222L7.12486 15.261C7.24429 15.1117 7.46213 15.0875 7.61141 15.2069C7.63137 15.2229 7.64951 15.241 7.66547 15.261L9.71449 17.8222C9.83391 17.9715 9.8097 18.1893 9.66042 18.3088C9.59904 18.3579 9.52278 18.3846 9.44418 18.3846H8.21304ZM23.2872 16.3077C22.9374 12.4263 19.6754 9.38462 15.7029 9.38462C13.4957 9.38462 11.4424 10.3279 10.0054 11.9469C9.75157 12.2328 9.31401 12.2589 9.02805 12.005C8.7421 11.7512 8.71605 11.3137 8.96987 11.0277C10.667 9.11573 13.0956 8 15.7029 8C20.4405 8 24.3231 11.6606 24.6766 16.3077H26.0596C26.2507 16.3077 26.4057 16.4627 26.4057 16.6538C26.4057 16.7324 26.379 16.8087 26.3299 16.8701L24.2809 19.4314C24.1614 19.5806 23.9436 19.6048 23.7943 19.4854C23.7744 19.4694 23.7562 19.4513 23.7402 19.4314L21.6912 16.8701C21.5718 16.7208 21.596 16.503 21.7453 16.3835C21.8067 16.3344 21.8829 16.3077 21.9615 16.3077H23.2872Z" fill="black" />
</svg>
