<svg width="32" height="32" viewBox="0 0 32 32" fill="none" xmlns="http://www.w3.org/2000/svg">
    <path fill-rule="evenodd" clip-rule="evenodd" d="M12.0732 11.8724C14.4897 18.9248 13.1167 17.5034 20.2014 19.9089C13.1167 22.3144 14.4897 20.9476 12.0732 28C9.65675 20.9476 11.0297 22.3144 4 19.9089C11.0297 17.5034 9.65675 18.9248 12.0732 11.8724Z" />
    <path fill-rule="evenodd" clip-rule="evenodd" d="M22.6178 8.04553C24.2104 12.6925 23.3317 11.8177 27.9999 13.4032C23.3317 14.9886 24.2104 14.0592 22.6178 18.7061C21.0251 14.0592 21.9587 14.9886 17.2905 13.4032C21.9587 11.8177 21.0251 12.6925 22.6178 8.04553Z" />
    <path fill-rule="evenodd" clip-rule="evenodd" d="M15.6979 4C16.7413 7.00683 16.1372 6.40547 19.1578 7.44419C16.1372 8.48292 16.7413 7.88155 15.6979 10.8884C14.6544 7.88155 15.2585 8.48292 12.2379 7.44419C15.2585 6.40547 14.6544 7.00683 15.6979 4Z" />
</svg>
